#!OML:ASF F:\VICON\USERDATA\INSTALL\rory3\rory3.ASF
:FULLY-SPECIFIED
:DEGREES
271
root 1.15223 21.2884 -16.5606 5.35136 -1.0096 -0.21301
lowerback 8.39749 -0.745275 -0.664838
upperback -0.555147 -0.937411 2.32398
thorax -5.2442 -0.411328 2.91824
lowerneck -18.8171 -3.17062 -8.88084
upperneck 14.1775 -3.17965 6.87411
head 7.71351 -1.33768 3.35301
rclavicle -3.67752e-015 -2.3059e-014
rhumerus -37.8656 3.31457 -81.2681
rradius 56.1205
rwrist -5.70746
rhand -16.2552 17.531
rfingers 7.12502
rthumb 9.95397 -12.2136
lclavicle -3.67752e-015 -2.3059e-014
lhumerus -31.5713 -3.91379 81.7283
lradius 45.2196
lwrist 1.18421
lhand -21.5132 21.4189
lfingers 7.12502
lthumb 4.87883 51.3427
rfemur -14.1741 0.130582 21.8125
rtibia 23.4104
rfoot 15.1668 -3.81871
rtoes 3.0014
lfemur -14.7647 -1.82057 -19.0281
ltibia 23.403
lfoot 16.5778 3.00068
ltoes 4.13272
272
root 1.14893 21.0741 -16.5665 5.33755 -0.991311 -0.276872
lowerback 8.48694 -0.698908 -0.588855
upperback -0.636247 -0.870343 2.24361
thorax -5.3857 -0.379251 2.78606
lowerneck -18.7316 -3.22452 -8.80127
upperneck 14.2306 -3.28565 6.87894
head 7.72418 -1.38501 3.32923
rclavicle -1.91827e-014 -1.19271e-014
rhumerus -38.1495 3.33765 -81.3031
rradius 56.4293
rwrist -5.80198
rhand -16.4232 17.4612
rfingers 7.12502
rthumb 9.7919 -12.2912
lclavicle -1.91827e-014 -1.19271e-014
lhumerus -31.4722 -4.32737 81.4768
lradius 45.592
lwrist 1.5748
lhand -22.2804 17.923
lfingers 7.12502
lthumb 4.13802 47.8625
rfemur -14.0646 0.102716 21.9684
rtibia 23.4574
rfoot 15.9175 -3.53934
rtoes 3.90231
lfemur -14.7618 -1.74378 -18.9286
ltibia 23.2576
lfoot 17.2438 2.39025
ltoes 3.70351
273
root 1.1486 20.8492 -16.5711 5.3091 -1.00496 -0.282596
lowerback 8.34729 -0.708453 -0.606383
upperback -0.588474 -0.887762 2.21834
thorax -5.2558 -0.389555 2.76777
lowerneck -18.3426 -3.21669 -8.79737
upperneck 13.7015 -3.28006 6.83517
head 7.48191 -1.39038 3.30982
rclavicle 1.50082e-014 9.93923e-015
rhumerus -38.0591 3.57756 -81.344
rradius 56.495
rwrist -5.80255
rhand -16.6117 17.3377
rfingers 7.12502
rthumb 9.60997 -12.4231
lclavicle 1.50082e-014 9.93923e-015
lhumerus -31.2928 -4.41481 81.2443
lradius 46.1146
lwrist 2.00279
lhand -22.6358 16.771
lfingers 7.12502
lthumb 3.79481 46.717
rfemur -13.9434 -0.125625 22.0511
rtibia 23.5876
rfoot 16.894 -3.32162
rtoes 5.75555
lfemur -14.705 -1.65787 -18.915
ltibia 23.1396
lfoot 17.7208 1.55952
ltoes 3.05634
274
root 1.14508 20.6123 -16.5738 5.27914 -0.853709 -0.245865
lowerback 7.98756 -0.823535 -0.776524
upperback -0.417887 -1.05822 2.29728
thorax -4.8609 -0.474258 2.95584
lowerneck -18.0954 -3.12593 -9.09965
upperneck 13.351 -3.11014 6.97763
head 7.31806 -1.31432 3.42454
rclavicle 6.85807e-015 -7.95139e-016
rhumerus -37.8053 3.98506 -81.3295
rradius 56.7412
rwrist -5.75573
rhand -16.598 16.9671
rfingers 7.12502
rthumb 9.62321 -12.7931
lclavicle 6.85807e-015 -7.95139e-016
lhumerus -31.0226 -4.19136 81.098
lradius 46.6912
lwrist 2.24763
lhand -22.1843 18.5797
lfingers 7.12502
lthumb 4.23079 48.5174
rfemur -13.8772 -0.381847 22.126
rtibia 23.8251
rfoot 17.5439 -3.41785
rtoes 6.20627
lfemur -14.7127 -1.91367 -18.855
ltibia 23.0771
lfoot 18.3859 0.893608
ltoes 3.28491
275
root 1.14005 20.3577 -16.5777 5.08717 -0.604812 -0.196564
lowerback 7.90405 -0.924732 -0.959454
upperback -0.222274 -1.20949 2.37924
thorax -4.59569 -0.548815 3.15661
lowerneck -18.388 -3.09913 -9.47254
upperneck 13.5705 -2.99385 7.18137
head 7.43896 -1.25572 3.57014
rclavicle -9.93923e-017 -2.06736e-014
rhumerus -37.5966 4.26775 -81.245
rradius 57.0152
rwrist -5.73328
rhand -16.4405 16.7634
rfingers 7.12502
rthumb 9.77516 -12.9897
lclavicle -9.93923e-017 -2.06736e-014
lhumerus -30.6557 -4.03542 81.0333
lradius 47.202
lwrist 2.49922
lhand -21.6298 19.3294
lfingers 7.12502
lthumb 4.76619 49.2557
rfemur -13.645 -0.644129 22.2115
rtibia 24.1779
rfoot 17.9564 -3.70985
rtoes 5.55251
lfemur -14.5491 -2.33918 -18.7935
ltibia 23.079
lfoot 19.0203 0.562176
ltoes 4.7939
276
root 1.13592 20.0862 -16.581 4.77946 -0.426919 -0.0894988
lowerback 8.00467 -0.95826 -1.11989
upperback -0.0159627 -1.27371 2.33311
thorax -4.43079 -0.581646 3.20495
lowerneck -18.8601 -3.15895 -9.45679
upperneck 13.7229 -3.04324 7.19267
head 7.57369 -1.26991 3.56654
rclavicle -8.74653e-015 -1.43125e-014
rhumerus -37.3153 4.32603 -81.2029
rradius 57.0096
rwrist -5.68899
rhand -16.5079 17.215
rfingers 7.12502
rthumb 9.71019 -12.5412
lclavicle -8.74653e-015 -1.43125e-014
lhumerus -30.3283 -4.06075 80.8472
lradius 47.7841
lwrist 2.90448
lhand -21.3289 19.9001
lfingers 7.12502
lthumb 5.0568 49.8197
rfemur -13.3008 -0.913135 22.2177
rtibia 24.6247
rfoot 18.4178 -4.30407
rtoes 6.2083
lfemur -14.2279 -2.62269 -18.8468
ltibia 23.1952
lfoot 20.0084 0.50139
ltoes 6.15271
277
root 1.13267 19.8094 -16.5805 4.60582 -0.337444 0.0351321
lowerback 7.97963 -1.01761 -1.33147
upperback -0.00530464 -1.37441 2.29409
thorax -4.3953 -0.628025 3.29435
lowerneck -18.5762 -3.12128 -9.3163
upperneck 13.5826 -3.02161 7.03299
head 7.4724 -1.27134 3.49093
rclavicle 7.15625e-015 -6.36111e-015
rhumerus -37.3137 4.72823 -81.2606
rradius 57.0794
rwrist -5.64122
rhand -16.8574 17.2306
rfingers 7.12502
rthumb 9.3729 -12.5411
lclavicle 7.15625e-015 -6.36111e-015
lhumerus -30.3343 -3.93071 80.6021
lradius 48.2814
lwrist 3.18481
lhand -20.4268 23.5877
lfingers 7.12502
lthumb 5.92779 53.4848
rfemur -13.1413 -1.22246 22.1832
rtibia 25.2029
rfoot 18.8049 -4.70012
rtoes 5.78692
lfemur -13.9943 -2.5153 -18.9743
ltibia 23.4691
lfoot 20.7736 0.086139
ltoes 6.10046
278
root 1.12883 19.5221 -16.5803 4.51967 -0.099142 0.0637584
lowerback 7.85235 -1.15197 -1.46189
upperback -0.136548 -1.56281 2.31944
thorax -4.44402 -0.716241 3.41491
lowerneck -17.471 -2.97984 -9.32919
upperneck 13.1517 -2.89496 6.93909
head 7.13155 -1.2365 3.47365
rclavicle -9.24349e-015 -1.82882e-014
rhumerus -37.7669 5.33799 -81.3314
rradius 57.5418
rwrist -5.67307
rhand -16.8891 16.9634
rfingers 7.12502
rthumb 9.34239 -12.8095
lclavicle -9.24349e-015 -1.82882e-014
lhumerus -30.4773 -3.8757 80.3807
lradius 48.669
lwrist 3.39102
lhand -19.3364 25.4313
lfingers 7.12502
lthumb 6.98046 55.2962
rfemur -13.1232 -1.47029 22.2437
rtibia 26.0727
rfoot 17.7513 -5.09981
rtoes 3.0149
lfemur -13.95 -2.55306 -18.9728
ltibia 23.9853
lfoot 20.2139 -0.511969
ltoes 1.29967
279
root 1.12448 19.2061 -16.5855 4.39564 0.123704 0.0235303
lowerback 7.61796 -1.2012 -1.45643
upperback -0.102771 -1.62922 2.27997
thorax -4.27362 -0.752905 3.36963
lowerneck -16.6728 -2.94067 -9.28722
upperneck 12.7724 -2.91125 6.93869
head 6.87397 -1.25341 3.46249
rclavicle -1.80894e-014 5.1684e-015
rhumerus -38.1044 5.45238 -81.3473
rradius 58.0537
rwrist -5.75014
rhand -16.6617 16.8787
rfingers 7.12502
rthumb 9.56172 -12.8843
lclavicle -1.80894e-014 5.1684e-015
lhumerus -30.3522 -4.22702 80.1243
lradius 49.1676
lwrist 3.55886
lhand -18.483 22.7244
lfingers 7.12502
lthumb 7.8042 52.5604
rfemur -13.1261 -1.39869 22.3574
rtibia 27.3704
rfoot 14.1386 -4.97926
rtoes -1.8774
lfemur -14.058 -2.91265 -18.7987
ltibia 24.9324
lfoot 16.5256 -0.0257442
ltoes -5.65961
280
root 1.12529 18.8521 -16.5987 4.16662 0.185012 0.161453
lowerback 7.51237 -1.18728 -1.62727
upperback 0.0872856 -1.62939 2.22188
thorax -4.01341 -0.756404 3.39781
lowerneck -16.6557 -2.97014 -9.37227
upperneck 12.7579 -2.94062 6.99098
head 6.87106 -1.26738 3.49039
rclavicle 7.65321e-015 1.35174e-014
rhumerus -37.9248 5.44744 -81.2034
rradius 58.2013
rwrist -5.71742
rhand -16.4014 17.2066
rfingers 7.12502
rthumb 9.81292 -12.5447
lclavicle 7.65321e-015 1.35174e-014
lhumerus -30.0049 -4.48492 79.9342
lradius 49.7437
lwrist 3.75235
lhand -23.3045 28.4713
lfingers 7.12502
lthumb 3.14903 58.4278
rfemur -13.045 -1.44323 22.2487
rtibia 29.1561
rfoot 8.13244 -3.47589
rtoes -12.1866
lfemur -14.0388 -3.10389 -18.8708
ltibia 26.4754
lfoot 10.7456 -1.42909
ltoes -15.5768
281
root 1.12617 18.5057 -16.6201 3.88765 0.131992 0.276679
lowerback 7.61222 -1.17746 -1.93778
upperback 0.253245 -1.64134 2.32206
thorax -3.88463 -0.7599 3.67869
lowerneck -16.9234 -2.94394 -9.57654
upperneck 12.9939 -2.82193 6.89008
head 6.98415 -1.22678 3.50547
rclavicle 2.08724e-015 -1.74931e-014
rhumerus -37.4114 5.81289 -80.9018
rradius 58.0285
rwrist -5.6509
rhand -15.824 17.6062
rfingers 7.12502
rthumb 10.37 -12.1181
lclavicle 2.08724e-015 -1.74931e-014
lhumerus -29.5297 -4.29044 79.9143
lradius 50.106
lwrist 3.69498
lhand -20.9971 28.2583
lfingers 7.12502
lthumb 5.37711 58.1701
rfemur -12.9371 -1.81557 22.2133
rtibia 31.2964
rfoot 1.60299 -2.46505
rtoes -3.79291
lfemur -13.9364 -2.463 -19.0389
ltibia 28.6187
lfoot 2.58345 -4.03105
ltoes -12.731
282
root 1.12233 18.213 -16.6476 3.62902 0.207945 0.186202
lowerback 7.92905 -1.20981 -2.03027
upperback 0.265316 -1.69001 2.45826
thorax -4.03945 -0.778394 3.88887
lowerneck -16.9311 -2.8921 -9.74859
upperneck 13.4531 -2.71554 6.83417
head 7.12715 -1.19378 3.53231
rclavicle 2.27608e-014 -2.46493e-014
rhumerus -37.2197 6.37814 -80.722
rradius 57.9971
rwrist -5.66153
rhand -15.3921 17.703
rfingers 7.12502
rthumb 10.7865 -12
lclavicle 2.27608e-014 -2.46493e-014
lhumerus -29.0526 -4.14285 79.8768
lradius 50.2101
lwrist 3.43133
lhand -18.0451 22.0749
lfingers 7.12502
lthumb 8.22683 51.8948
rfemur -13.0034 -2.12459 22.4506
rtibia 33.5402
rfoot -3.8746 -2.62866
rtoes -7.83864
lfemur -14.163 -1.31725 -18.9884
ltibia 31.1806
lfoot -2.93031 -4.18707
ltoes -14.4652
283
root 1.11738 17.9405 -16.683 3.40455 0.406705 0.033726
lowerback 8.45583 -1.23245 -1.87795
upperback 0.280497 -1.70948 2.47134
thorax -4.32158 -0.785431 3.83614
lowerneck -16.7766 -2.96889 -10.076
upperneck 13.6247 -2.82075 7.17297
head 7.17585 -1.23525 3.68985
rclavicle -1.02374e-014 -2.38542e-015
rhumerus -37.0121 6.63614 -80.6883
rradius 58.008
rwrist -5.50843
rhand -15.3086 17.6614
rfingers 7.12502
rthumb 10.8671 -12.0375
lclavicle -1.02374e-014 -2.38542e-015
lhumerus -28.3993 -4.28257 79.7095
lradius 50.3235
lwrist 3.09868
lhand -16.8398 12.7098
lfingers 7.12502
lthumb 9.38994 42.4807
rfemur -13.4532 -2.10371 22.7325
rtibia 35.6978
rfoot -8.42337 -2.77416
rtoes -10.6991
lfemur -15.0659 -0.236811 -18.8528
ltibia 33.9555
lfoot -7.65825 -4.34097
ltoes -13.3655
